<svg  viewBox="0 0 32 32" fill="none" xmlns="http://www.w3.org/2000/svg">
<rect x="0.5" y="0.5" width="31" height="31" rx="15.5" fill="#F9F9F9"/>
<rect x="0.5" y="0.5" width="31" height="31" rx="15.5" stroke="#DBDFE9"/>
<path d="M16.0002 11.0007C16.9168 11.0007 17.6668 11.7507 17.6668 12.6673C17.6668 13.584 16.9168 14.334 16.0002 14.334C15.0835 14.334 14.3335 13.584 14.3335 12.6673C14.3335 11.7507 15.0835 11.0007 16.0002 11.0007ZM16.0002 19.334C18.2502 19.334 20.8335 20.409 21.0002 21.0007H11.0002C11.1918 20.4007 13.7585 19.334 16.0002 19.334ZM16.0002 9.33398C14.1585 9.33398 12.6668 10.8257 12.6668 12.6673C12.6668 14.509 14.1585 16.0007 16.0002 16.0007C17.8418 16.0007 19.3335 14.509 19.3335 12.6673C19.3335 10.8257 17.8418 9.33398 16.0002 9.33398ZM16.0002 17.6673C13.7752 17.6673 9.3335 18.784 9.3335 21.0007V22.6673H22.6668V21.0007C22.6668 18.784 18.2252 17.6673 16.0002 17.6673Z" fill="#78829D"/>
</svg>
